<svg id="Capa_1" enable-background="new 0 0 512 512" height="512" viewBox="0 0 512 512" width="512" xmlns="http://www.w3.org/2000/svg"><g><circle cx="256" cy="256" fill="#ff9959" r="256"/><path d="m512 256c0-4.046-.105-8.067-.291-12.066l-85.947-85.947-339.524 196.027 150 149.577 14.385 8.341c1.789.037 3.579.068 5.377.068 141.385 0 256-114.615 256-256z" fill="#ff776b"/><g><path d="m256 59.973-110.875 294.041h280.637v-196.027z" fill="#bfebff"/><path d="m256 59.973v294.041h-169.762v-196.027z" fill="#e5f7ff"/><path d="m425.762 354.014-169.762 98.013-92.544-142.593h185.088z" fill="#45c5ff"/><path d="m256 309.434v142.593l-169.762-98.013 77.218-44.58z" fill="#85d9ff"/><path d="m357.076 197.64v116.72l-101.076 58.352-67.277-175.072z" fill="#f71e78"/><path d="m256 197.64v175.072l-101.076-58.352v-116.72z" fill="#ff4f75"/><path d="m357.076 197.64-101.076 58.36-47.255-58.36 47.255-58.351z" fill="#ff776b"/><path d="m256 139.289v116.711l-101.076-58.36z" fill="#ff9959"/></g></g></svg>